%TF.GenerationSoftware,KiCad,Pcbnew,8.0.2*%
%TF.CreationDate,2024-10-03T22:03:05+02:00*%
%TF.ProjectId,skrhade_single_pcb,736b7268-6164-4655-9f73-696e676c655f,rev?*%
%TF.SameCoordinates,Original*%
%TF.FileFunction,Drillmap*%
%TF.FilePolarity,Positive*%
%FSLAX45Y45*%
G04 Gerber Fmt 4.5, Leading zero omitted, Abs format (unit mm)*
G04 Created by KiCad (PCBNEW 8.0.2) date 2024-10-03 22:03:05*
%MOMM*%
%LPD*%
G01*
G04 APERTURE LIST*
%ADD10C,0.050000*%
%ADD11C,0.200000*%
G04 APERTURE END LIST*
D10*
X9325000Y-11600000D02*
G75*
G02*
X9025000Y-11600000I-150000J0D01*
G01*
X9025000Y-11600000D02*
G75*
G02*
X9325000Y-11600000I150000J0D01*
G01*
X8750000Y-11850000D02*
X9600000Y-11850000D01*
X8350000Y-11450000D02*
G75*
G02*
X8750000Y-11850000I0J-400000D01*
G01*
X10000000Y-10300000D02*
G75*
G02*
X9700000Y-10000000I0J300000D01*
G01*
X8650000Y-10000000D02*
G75*
G02*
X8350000Y-10300000I-300000J0D01*
G01*
X10000000Y-10300000D02*
X10000000Y-11450000D01*
X8650000Y-10000000D02*
X9700000Y-10000000D01*
X8350000Y-11450000D02*
X8350000Y-10300000D01*
X9600000Y-11850000D02*
G75*
G02*
X10000000Y-11450000I400000J0D01*
G01*
D11*
X8608277Y-12163984D02*
X8608277Y-11963984D01*
X8608277Y-11963984D02*
X8655896Y-11963984D01*
X8655896Y-11963984D02*
X8684467Y-11973508D01*
X8684467Y-11973508D02*
X8703515Y-11992555D01*
X8703515Y-11992555D02*
X8713039Y-12011603D01*
X8713039Y-12011603D02*
X8722563Y-12049698D01*
X8722563Y-12049698D02*
X8722563Y-12078269D01*
X8722563Y-12078269D02*
X8713039Y-12116365D01*
X8713039Y-12116365D02*
X8703515Y-12135412D01*
X8703515Y-12135412D02*
X8684467Y-12154460D01*
X8684467Y-12154460D02*
X8655896Y-12163984D01*
X8655896Y-12163984D02*
X8608277Y-12163984D01*
X8808277Y-12163984D02*
X8808277Y-12030650D01*
X8808277Y-12068746D02*
X8817801Y-12049698D01*
X8817801Y-12049698D02*
X8827324Y-12040174D01*
X8827324Y-12040174D02*
X8846372Y-12030650D01*
X8846372Y-12030650D02*
X8865420Y-12030650D01*
X8932086Y-12163984D02*
X8932086Y-12030650D01*
X8932086Y-11963984D02*
X8922563Y-11973508D01*
X8922563Y-11973508D02*
X8932086Y-11983031D01*
X8932086Y-11983031D02*
X8941610Y-11973508D01*
X8941610Y-11973508D02*
X8932086Y-11963984D01*
X8932086Y-11963984D02*
X8932086Y-11983031D01*
X9055896Y-12163984D02*
X9036848Y-12154460D01*
X9036848Y-12154460D02*
X9027324Y-12135412D01*
X9027324Y-12135412D02*
X9027324Y-11963984D01*
X9160658Y-12163984D02*
X9141610Y-12154460D01*
X9141610Y-12154460D02*
X9132086Y-12135412D01*
X9132086Y-12135412D02*
X9132086Y-11963984D01*
X9389229Y-12163984D02*
X9389229Y-11963984D01*
X9389229Y-11963984D02*
X9455896Y-12106841D01*
X9455896Y-12106841D02*
X9522563Y-11963984D01*
X9522563Y-11963984D02*
X9522563Y-12163984D01*
X9703515Y-12163984D02*
X9703515Y-12059222D01*
X9703515Y-12059222D02*
X9693991Y-12040174D01*
X9693991Y-12040174D02*
X9674944Y-12030650D01*
X9674944Y-12030650D02*
X9636848Y-12030650D01*
X9636848Y-12030650D02*
X9617801Y-12040174D01*
X9703515Y-12154460D02*
X9684467Y-12163984D01*
X9684467Y-12163984D02*
X9636848Y-12163984D01*
X9636848Y-12163984D02*
X9617801Y-12154460D01*
X9617801Y-12154460D02*
X9608277Y-12135412D01*
X9608277Y-12135412D02*
X9608277Y-12116365D01*
X9608277Y-12116365D02*
X9617801Y-12097317D01*
X9617801Y-12097317D02*
X9636848Y-12087793D01*
X9636848Y-12087793D02*
X9684467Y-12087793D01*
X9684467Y-12087793D02*
X9703515Y-12078269D01*
X9798753Y-12030650D02*
X9798753Y-12230650D01*
X9798753Y-12040174D02*
X9817801Y-12030650D01*
X9817801Y-12030650D02*
X9855896Y-12030650D01*
X9855896Y-12030650D02*
X9874944Y-12040174D01*
X9874944Y-12040174D02*
X9884467Y-12049698D01*
X9884467Y-12049698D02*
X9893991Y-12068746D01*
X9893991Y-12068746D02*
X9893991Y-12125888D01*
X9893991Y-12125888D02*
X9884467Y-12144936D01*
X9884467Y-12144936D02*
X9874944Y-12154460D01*
X9874944Y-12154460D02*
X9855896Y-12163984D01*
X9855896Y-12163984D02*
X9817801Y-12163984D01*
X9817801Y-12163984D02*
X9798753Y-12154460D01*
X9979705Y-12144936D02*
X9989229Y-12154460D01*
X9989229Y-12154460D02*
X9979705Y-12163984D01*
X9979705Y-12163984D02*
X9970182Y-12154460D01*
X9970182Y-12154460D02*
X9979705Y-12144936D01*
X9979705Y-12144936D02*
X9979705Y-12163984D01*
X9979705Y-12040174D02*
X9989229Y-12049698D01*
X9989229Y-12049698D02*
X9979705Y-12059222D01*
X9979705Y-12059222D02*
X9970182Y-12049698D01*
X9970182Y-12049698D02*
X9979705Y-12040174D01*
X9979705Y-12040174D02*
X9979705Y-12059222D01*
M02*
